<?xml version="1.0" encoding="UTF-8" standalone="no"?><!DOCTYPE svg PUBLIC "-//W3C//DTD SVG 1.1//EN" "http://www.w3.org/Graphics/SVG/1.1/DTD/svg11.dtd"><svg width="100%" height="100%" viewBox="0 0 80000 60000" version="1.1" xmlns="http://www.w3.org/2000/svg" xmlns:xlink="http://www.w3.org/1999/xlink" xml:space="preserve" xmlns:serif="http://www.serif.com/" style="fill-rule:evenodd;clip-rule:evenodd;stroke-linejoin:round;stroke-miterlimit:2;"><path d="M19261.7,10996.454l112.667,56.333c2.533,1454.808 4.158,2909.525 -10.308,4364.242l-1.717,165.2c-2.804,287 -5.788,574.092 -8.771,861.092c-30.471,2905.633 -48.196,5811.363 -64.379,8717.175l-6.692,1164.371c-14.379,2516.908 -25.317,5033.729 -20.796,7550.725l160.679,-130.75l90.421,-73.513c110.225,-98.2 198.388,-211.317 290.254,-326.333c88.433,-100.55 183.737,-184.008 285.917,-270.546c237.267,-205.35 459.708,-422.271 680.7,-644.892l124.604,-124.783c88.525,-88.796 176.958,-177.5 265.3,-266.383c140.154,-140.879 280.492,-281.575 420.917,-422.183c298.033,-298.667 595.883,-597.513 893.646,-896.358c345.142,-346.587 690.558,-692.996 1036.242,-1039.317c137.625,-138.075 275.246,-276.242 412.779,-414.496l255.354,-255.896l114.296,-115.2c217.104,-217.013 440.721,-422.546 673.104,-623.1c122.071,-106.517 237.992,-218.008 352.558,-332.483l132.742,-132.196l138.617,-138.887l146.938,-146.754c101.817,-101.817 203.542,-203.633 305.358,-305.537c154.713,-154.983 309.696,-309.788 464.771,-464.5l298.213,-298.396l138.979,-138.617c238.171,-239.075 466.942,-482.675 687.121,-738.479c101.275,-116.646 207.338,-227.321 316.479,-336.642l120.983,-121.167l122.342,-121.708l121.617,-122.25c185.729,-185.367 372.721,-365.758 572.462,-536.117c332.304,-286.458 635.671,-604.021 943.738,-915.888c708.1,-716.871 708.1,-716.871 1052.246,-1010.2c186.813,-160.771 364.404,-331.579 543.438,-500.758c502.75,-472.821 1005.496,-938.767 1543.242,-1372.071c167.283,-139.521 326.788,-286.004 485.658,-434.75c296.588,-276.513 608.542,-526.892 929.454,-774.379c182.833,-141.421 360.967,-287.817 538.917,-435.204c472.275,-390.446 961.733,-742.188 1472.8,-1079.733l134.908,-89.879c616.863,-410.7 1239.6,-801.775 1893.988,-1149.904l180.392,-96.208c868.6,-448.496 1664.858,-689.833 2641.058,-644.621c409.342,31.196 756.292,196.217 1098.542,415.038c468.025,340.983 796.804,759.096 1039.588,1283.817c280.762,733.325 422.092,1475.604 322.988,2261.196c-141.692,862.358 -499.133,1645.779 -1051.883,2320.963c-75.321,88.883 -151.729,176.958 -229.221,264.125l-118,133.192c-786.583,830.079 -1868.4,1348.921 -2949.942,1673.629c-1190.321,341.617 -2467.721,507.812 -3703.25,515.5l-432.854,4.883c-224.158,2.262 -448.312,4.429 -672.471,5.879c-1137.333,8.229 -2251.7,42.229 -3345.812,382.396l-170.717,51.992c-1493.325,466.487 -2797.492,1245.479 -3980.487,2262.188c-217.375,186.542 -440.446,366.121 -663.883,545.338c-150.192,127.404 -291.158,248.3 -419.2,398.4l-3.708,114.021c78.488,145.671 174.967,251.917 288.992,372c1139.321,1233.633 2120.317,2669.725 2963.958,4118.379c67.908,115.379 137.079,229.854 207.521,343.604c836.95,1365.287 1521.992,2835.921 2179.092,4293.8l93.046,205.529c749.604,1656.087 1477.775,3322.575 2156.758,5008.95c97.746,242.333 201.008,482.225 309.879,719.671c160.862,350.567 306.079,707.012 451.933,1064.183c106.154,257.525 213.217,514.683 320.275,771.846c33.638,80.929 67.367,161.946 100.912,242.875c104.258,251.192 209.692,501.846 316.388,751.863c34.088,80.475 67.908,161.042 101.362,241.792c47.108,112.938 94.942,225.604 143.592,337.908l82.646,195.675l93.679,152.362c185.817,89.429 369.829,136.992 571.558,176.325l170.354,33.637l181.837,34.992l187.896,37.075c197.662,38.883 395.417,77.492 593.171,116.012c198.567,38.608 397.133,77.492 595.612,116.463c123.517,24.325 246.942,48.375 370.55,72.246l168.096,33.096l148.833,28.933l111.763,27.4l56.425,56.425c4.071,94.942 4.7,190.158 3.525,285.283l-1.537,156.883l-1.988,121.346c-1893.083,0.996 -3786.258,1.988 -5679.525,3.075l-120.533,0c-644.621,0.271 -1289.333,0.725 -1933.954,1.267c-660.987,0.454 -1321.975,0.812 -1982.963,0.904c-371.454,0 -743,0.271 -1114.458,0.725c-349.212,0.362 -698.425,0.454 -1047.546,0.362c-128.671,0 -257.25,0.092 -385.742,0.362c-174.696,0.179 -349.392,0.271 -524.179,0l-156.342,0.633c-118.454,-0.725 -236.908,-3.167 -355.358,-7.325l-56.333,-56.425c-8.046,-206.617 -2.35,-413.05 0,-619.846c483.579,-55.338 961.371,-63.117 1447.754,-59.858l219.546,0.725c176.867,0.725 353.733,1.629 530.688,2.804c-450.304,-867.604 -913.446,-1727.521 -1384.729,-2583.821c-293.058,-532.496 -585.575,-1064.362 -854.129,-1609.7c-279.133,-565.683 -572.825,-1124.042 -863.446,-1683.938c-125.958,-242.967 -251.554,-486.112 -376.7,-729.438c-351.654,-682.146 -709.092,-1359.413 -1086.246,-2027.812c-76.138,-136.088 -151.188,-272.712 -225.242,-409.883l-169.092,-309.967l-55.25,-101.725c-1204.425,-2235.875 -1204.425,-2235.875 -2819.008,-4181.046c-220.721,93.408 -387.371,233.65 -563.604,394.513c-88.254,134.821 -112.488,223.433 -126.771,385.292l0.179,188.8l-0.725,217.283l0.904,238.263c0,83.821 -0.092,167.642 -0.363,251.467c-0.271,228.496 0.179,457.087 0.812,685.492c0.542,241.879 0.363,483.671 0.363,725.55c0.092,408.892 0.542,817.779 1.267,1226.671c0.812,414.225 1.175,828.358 1.175,1242.583c-0.179,2262.371 3.888,4523.654 66.821,6785.3l593.263,269.821l168.458,76.679c421.55,191.517 843.821,381.492 1267.179,569.208l193.596,86.083c399.575,177.229 800.237,351.654 1203.433,520.379c124.604,55.7 124.604,55.7 181.025,112.033c7.054,169.092 7.054,169.092 0,338.088l-56.425,56.425c-81.017,5.517 -162.308,7.054 -243.508,7.054l-160.229,0.454l-178.133,-0.362l-187.625,0.271c-209.237,0.179 -418.475,0 -627.621,-0.179l-447.862,0.363c-364.404,0.179 -728.804,0.179 -1093.208,0c-423.9,-0.179 -847.892,-0.179 -1271.792,0c-801.867,0.092 -1603.733,0 -2405.6,-0.363c-688.837,-0.179 -1377.588,-0.179 -2066.425,0.092c-883.971,0.362 -1768.029,0.454 -2652,0.179l-126.954,0c-295.954,-0.092 -591.725,0 -887.588,0.092c-360.333,0.271 -720.575,0.179 -1080.908,-0.092c-184.008,-0.271 -368.021,-0.271 -551.938,0c-199.021,0 -398.042,-0.092 -597.058,-0.362l-178.133,0.362l-160.321,-0.454l-139.342,0l-104.075,-7.054l-56.425,-56.425c-2.262,-131.475 -2.262,-262.95 0,-394.421c412.596,-212.492 832.338,-405.363 1256.329,-593.533c181.567,-80.658 362.954,-161.675 544.254,-242.783l106.517,-47.562c415.671,-185.908 827.637,-379.05 1239.242,-573.642c102.992,-48.467 205.983,-96.75 309.154,-144.946l178.946,-84.362c141.6,-60.129 141.6,-60.129 254.358,-60.129c1.717,-335.738 2.804,-671.567 3.525,-1007.304l0.271,-162.129c0.996,-739.296 -5.154,-1478.496 -18.354,-2217.613l-4.158,-238.625c-6.783,-387.642 -14.288,-775.371 -22.604,-1163.012c-15.192,-774.829 -14.921,-1546.858 7.054,-2321.417c52.625,-1856.012 42.95,-3712.567 41.504,-5569.121c-0.179,-301.742 -0.362,-603.571 -0.454,-905.4c-0.812,-2325.667 -3.708,-4651.329 -31.467,-6976.996l-1.717,-146.483c-11.483,-1211.571 -11.483,-1211.571 -67.275,-2421.696c-35.175,-566.404 -27.4,-1134.529 -26.404,-1701.842c0.179,-201.821 0.092,-403.737 -0.363,-605.558c-0.179,-712.35 14.829,-1421.258 51.271,-2132.612c26.312,-522.55 21.429,-1045.013 14.379,-1567.925c-1.446,-150.371 -0.271,-300.475 1.538,-450.846c-0.904,-81.017 -1.9,-162.038 -3.167,-243.054l0,-205.529l-56.333,-167.733c-153.987,-96.392 -284.196,-159.596 -450.846,-225.425c-98.379,-43.763 -196.671,-87.708 -294.779,-131.925c-111.854,-48.829 -223.796,-97.567 -335.737,-146.304c-519.929,-227.413 -1039.046,-456.633 -1557.437,-687.663c-71.975,-32.1 -144.042,-64.2 -216.021,-96.121c-101.362,-45.029 -202.637,-90.242 -303.908,-135.542l-175.779,-78.304c-52.717,-25.317 -105.433,-50.546 -159.688,-76.587l-161.854,-73.15l-119.992,-95.938c-17.542,-179.579 -17.542,-179.579 0,-338.087l1345.575,-362.775l203.179,-54.796c830.621,-224.158 1661.875,-445.783 2493.85,-664.875c458.896,-120.712 917.062,-244.142 1374.421,-370.371l149.108,-41.142c237.542,-65.646 474.9,-131.567 712.258,-197.846c547.508,-152.179 1097.004,-294.054 1648.583,-430.592c597.421,-148.292 1192.312,-305.629 1787.021,-464.05c183.65,-48.917 367.388,-97.746 551.125,-146.483l355.179,-94.4l163.938,-43.583l154.263,-41.142l144.133,-38.25c120.625,-33.546 240.612,-68.992 360.154,-106.246l167.1,-42.858l0.004,-0.017Zm18186.125,7103.95l-140.696,67.908c-409.613,202.908 -771.213,444.425 -1137.967,717.504c-64.65,46.025 -129.483,91.779 -194.408,137.35c-928.458,652.4 -1834.221,1351.092 -2671.079,2118.054c-114.296,104.346 -229.946,207.25 -346.95,308.612c-214.842,187.083 -426.342,377.604 -637.479,568.846c-120.625,107.692 -242.062,214.483 -364.404,320.275c-288.629,252.008 -565.229,516.404 -842.829,780.438c-189.346,179.4 -379.412,354.454 -580.242,520.925l-167.554,148.112l0,112.758l-97.654,41.775c-149.196,82.825 -248.842,180.933 -367.296,303.367l-120.533,123.696l-90.783,94.671l169.092,56.333c128.85,-59.046 249.658,-121.708 373.354,-190.158c402.471,-212.129 815.067,-375.796 1243.487,-528.338l174.062,-62.121c704.933,-247.304 1408.421,-446.325 2140.117,-596.425l246.221,-51.542c432.492,-90.242 865.525,-177.5 1299.008,-262.95c2204.408,-407.988 2204.408,-407.988 4157.533,-1457.158c367.117,-344.871 630.154,-784.054 798.883,-1256.058c112.396,-485.929 136.175,-1032.263 1.988,-1516.204c-127.225,-255.171 -320.096,-444.246 -554.742,-603.571c-302.554,-159.958 -636.846,-243.6 -978.825,-255.354c-475.079,37.704 -882.883,150.013 -1310.312,359.25" style="fill:#fefefe;fill-rule:nonzero;"/><path d="M47159.017,24859.213c416.488,-35.083 866.158,119.992 1264.558,225.333l199.562,52.537c1142.308,307.346 2253.058,689.379 3326.371,1187.246l123.338,56.967c1217.992,569.029 2304.596,1342.142 3295.537,2247.088c118.271,106.971 238.804,210.05 360.696,312.771c936.233,819.679 1638.092,1946.975 2187.408,3053.658l59.137,119.175c1652.833,3343.55 2172.492,7247.271 2202.238,10947.083l1.267,150.192c11.392,1416.017 7.504,2830.404 -57.688,4245.246l125.596,-49.008c190.521,-74.237 381.129,-148.292 571.833,-222.167l197.483,-77.129c374.079,-144.767 747.433,-276.963 1133.987,-384.204c102.358,217.375 118,381.312 112.758,619.846l-115.017,54.975c-903.771,430.954 -903.771,430.954 -1801.217,874.837c-70.983,35.538 -141.963,71.071 -213.033,106.517c-105.975,52.988 -211.679,106.246 -317.021,160.229c-860.279,417.3 -1854.746,488.642 -2795.05,437.646c-1025.571,-94.942 -1978.171,-400.121 -2874.258,-901.604l-170.354,-94.942c-611.525,-365.217 -1181.55,-870.133 -1534.108,-1494.142c-155.346,-298.483 -155.346,-298.483 -155.346,-439.633l-107.875,89.158c-170.267,139.975 -340.892,279.317 -512.062,418.025l-96.842,78.487c-422,340.804 -847.079,655.021 -1312.121,935.871l-129.937,85.179c-435.925,279.588 -908.746,465.946 -1391.783,647.425l-108.688,41.142c-710.721,263.129 -1453.992,364.583 -2201.967,466.037l-126.05,18.083c-402.471,52.354 -807.2,51.812 -1212.475,52.354l-116.462,0.179c-672.108,-0.271 -1322.879,-52.262 -1982.875,-183.375l-192.692,-36.983c-742.458,-164.75 -1397.117,-466.762 -2005.3,-921.042l-113.662,-82.104c-436.108,-340.804 -743.363,-833.242 -955.767,-1338.071c-314.488,-859.196 -361.871,-1776.8 -357.167,-2683.017l0.362,-126.05c4.071,-990.667 75.05,-1919.667 556.188,-2808.429c228.771,-379.592 507.812,-701.496 813.712,-1020.688l140.879,-151.458c872.85,-807.292 1984.229,-1304.525 3127.892,-1595.504c783.6,-166.737 1579.046,-233.562 2379.104,-236.817l197.029,-1.175c210.954,-0.996 421.821,-1.267 632.688,-1.446l218.279,-0.362c1489.621,-0.542 2984.304,47.2 4463.071,239.8c-501.662,-1486.363 -1106.046,-2700.375 -2197.988,-3831.921l-113.662,-122.433c-1531.667,-1608.704 -3783.908,-2458.95 -5860.371,-3089.733c-205.983,-58.592 -412.688,-114.925 -619.938,-169c363.5,337.729 728.988,661.079 1127.208,957.938c-20.888,104.892 -20.888,104.892 -56.333,225.425c-116.283,126.863 -116.283,126.863 -225.512,225.425c-311.417,-84.275 -501.846,-305.717 -725.55,-524.721c-308.612,-296.404 -619.396,-587.746 -944.008,-866.429l-103.713,-89.067c-68.992,-59.138 -137.983,-118.183 -207.158,-177.138c-440.992,-376.879 -880.262,-756.204 -1313.025,-1142.579l-151.188,-134.55l-105.883,-108.508l0,-112.758c154.983,-151.367 154.983,-151.367 338.179,-281.758c106.788,5.062 106.788,5.062 225.425,56.333c135.362,106.517 135.362,106.517 278.229,239.529l150.825,139.612c141.058,134.279 278.5,272.079 416.304,409.796c149.017,132.921 299.3,264.396 450.846,394.513c277.417,-232.204 535.842,-474.538 789.025,-732.604l133.825,-130.3c122.25,-125.054 236.996,-252.55 352.288,-383.933c313.133,-351.2 648.779,-679.796 983.979,-1009.929c201.821,-199.742 399.85,-399.396 584.762,-615.054c284.108,-330.767 600.133,-630.604 910.554,-936.417c477.521,-464.5 477.521,-464.5 889.304,-985.967c80.296,-112.667 146.667,-197.212 259.421,-277.508m507.271,14200.754c-529.875,480.958 -859.104,1123.5 -1089.05,1793.438c-331.942,1066.171 -421.188,2236.962 -207.25,3334.692c137.804,603.75 344.6,1193.575 746.979,1672.725c395.508,416.488 807.383,693.629 1348.833,884.242c474.717,132.742 935.6,145.85 1419.996,56.425c677.896,-182.925 1248.1,-591.454 1781.954,-1035.517l112.667,-93.767c95.217,-79.933 189.162,-161.404 281.846,-244.321l88.704,-70.621l80.296,-98.471c23.692,-140.154 23.692,-140.154 17.271,-299.658l-1.267,-186.45l-4.071,-203.088l-2.262,-212.312c-1.629,-149.379 -3.617,-298.846 -6.058,-448.225c-3.617,-221.446 -5.787,-442.888 -7.688,-664.333c-3.525,-368.108 -8.046,-736.221 -13.746,-1104.329c-2.263,-149.829 -4.25,-299.658 -5.967,-449.492c43.675,-1502.642 43.675,-1502.642 -201.642,-2969.021c-465.946,-7.958 -931.896,-13.746 -1397.842,-17.45c-216.379,-1.808 -432.854,-4.158 -649.233,-8.046c-209.417,-3.708 -418.746,-5.604 -628.254,-6.508c-79.3,-0.633 -158.692,-1.9 -237.992,-3.708c-549.496,-12.296 -965.892,60.946 -1426.233,373.808m23106.917,-14313.513l112.667,56.333c3.617,1201.262 1.083,2402.162 -14.287,3603.246c-38.521,3092.9 -43.763,6184.354 -22.788,9277.342l4.613,719.129c3.254,503.562 6.783,1007.217 10.758,1510.779c1.267,168.546 2.442,337.096 3.617,505.642c5.246,754.213 12.208,1506.892 56.062,2260.021c23.6,422.817 18.083,843.55 8.95,1266.817c-5.246,277.233 -6.058,554.562 -7.688,831.796c-1.358,241.246 -5.154,482.496 -11.304,723.65c-6.15,236.996 -8.229,473.812 -7.417,710.812c-0.454,89.246 -2.442,178.404 -5.879,267.558c-10.942,290.617 -3.525,533.042 98.108,807.925c230.937,257.525 540.996,409.342 845.358,563.513c102.358,58.321 204.538,117.008 306.442,176.054c66.733,35.625 133.554,71.071 200.829,105.704l0,394.421c-2105.304,48.829 -4209.979,62.754 -6315.738,63.296c-196.942,0.179 -393.792,0.362 -590.729,0.633c-314.488,0.271 -628.979,0.271 -943.467,0c-117.008,0 -234.013,0.092 -351.021,0.092c-1150.717,1.083 -1150.717,1.083 -1718.117,-64.021l0,-338.087l161.133,-74.329c350.117,-162.308 699.054,-325.792 1043.475,-499.675c761.717,-383.933 761.717,-383.933 936.958,-383.933l0,-19328.975l-507.179,-112.667c-253.363,-74.329 -503.925,-156.704 -754.396,-240.071c-116.646,-38.338 -233.379,-76.317 -350.204,-113.75l-223.162,-73.875l-203.088,-66.733l-159.958,-69.083l-112.667,-169.092c226.779,-153.083 453.829,-226.958 716.325,-293.058l128.4,-33.367c138.617,-36.079 277.508,-71.433 416.304,-106.787l292.062,-75.592c244.683,-63.387 489.546,-126.229 734.5,-188.983c196.85,-50.546 393.7,-101.275 590.637,-152.092c209.963,-54.254 419.921,-108.417 630.062,-162.487c523.725,-135.092 1047,-271.808 1569.917,-410.246c362.954,-95.667 726,-190.971 1089.05,-286.279l296.946,-78.033c308.429,-81.2 616.954,-161.767 925.562,-241.971c98.379,-25.587 196.671,-51.358 294.958,-77.221c136.267,-35.808 272.533,-71.254 408.8,-106.429l123.337,-32.733c97.025,-24.867 195.133,-45.392 293.242,-65.196" style="fill:#fefefe;fill-rule:nonzero;"/></svg>