<svg xmlns="http://www.w3.org/2000/svg" viewBox="0 0 1200 630">
  <defs>
    <linearGradient id="bg" x1="0%" y1="0%" x2="100%" y2="100%">
      <stop offset="0%" stop-color="#0A0A0A"/>
      <stop offset="100%" stop-color="#0d0d20"/>
    </linearGradient>
  </defs>
  <rect width="1200" height="630" fill="url(#bg)"/>
  <pattern id="dots" width="40" height="40" patternUnits="userSpaceOnUse">
    <circle cx="20" cy="20" r="1" fill="#D8FB32" opacity="0.06"/>
  </pattern>
  <rect width="1200" height="630" fill="url(#dots)"/>
  <!-- Waveform -->
  <polyline points="100,315 140,280 170,340 200,290 230,350 260,270 290,360 320,260 350,370 380,250 410,380 440,240 470,385 500,235 530,390 560,240 590,380 620,250 650,370 680,260 710,360 740,280 770,340 800,290 830,330 860,300 890,320 920,310 950,315 1000,315 1050,310 1100,315" fill="none" stroke="#D8FB32" stroke-width="2" opacity="0.5"/>
  <!-- Music notes (abstract) -->
  <!-- Note 1 -->
  <circle cx="350" cy="180" r="12" fill="none" stroke="#A855F7" stroke-width="1.5" opacity="0.6"/>
  <line x1="362" y1="180" x2="362" y2="130" stroke="#A855F7" stroke-width="1.5" opacity="0.6"/>
  <path d="M362,130 Q380,125 375,140" fill="#A855F7" opacity="0.3"/>
  <!-- Note 2 -->
  <circle cx="750" cy="430" r="14" fill="none" stroke="#3B82F6" stroke-width="1.5" opacity="0.5"/>
  <line x1="764" y1="430" x2="764" y2="375" stroke="#3B82F6" stroke-width="1.5" opacity="0.5"/>
  <path d="M764,375 Q785,370 780,385" fill="#3B82F6" opacity="0.25"/>
  <!-- Note 3 (small) -->
  <circle cx="900" cy="200" r="8" fill="none" stroke="#D8FB32" stroke-width="1" opacity="0.3"/>
  <line x1="908" y1="200" x2="908" y2="165" stroke="#D8FB32" stroke-width="1" opacity="0.3"/>
  <!-- Equalizer bars bottom -->
  <rect x="200" y="470" width="16" height="40" rx="2" fill="#D8FB32" opacity="0.15"/>
  <rect x="230" y="455" width="16" height="55" rx="2" fill="#D8FB32" opacity="0.12"/>
  <rect x="260" y="440" width="16" height="70" rx="2" fill="#A855F7" opacity="0.1"/>
  <rect x="290" y="460" width="16" height="50" rx="2" fill="#D8FB32" opacity="0.12"/>
  <rect x="320" y="450" width="16" height="60" rx="2" fill="#3B82F6" opacity="0.1"/>
  <!-- kai branding -->
  <circle cx="1150" cy="580" r="20" fill="#D8FB32" opacity="0.12"/>
</svg>